<svg version="1.0" xmlns="http://www.w3.org/2000/svg"
 width="800.000000pt" height="800.000000pt" viewBox="0 0 800.000000 800.000000"
 preserveAspectRatio="xMidYMid meet">

<g transform="translate(0.000000,800.000000) scale(0.100000,-0.100000)"
fill="#000000" stroke="none">
<path d="M3669 6705 c-604 -94 -1114 -504 -1333 -1070 -77 -199 -110 -386
-110 -615 0 -91 6 -201 13 -245 116 -725 634 -1273 1346 -1425 144 -31 440
-39 587 -16 384 61 684 212 958 486 571 570 663 1451 222 2130 -265 409 -690
681 -1177 755 -123 18 -387 18 -506 0z m574 -751 c52 -17 140 -91 163 -135 22
-43 48 -53 93 -36 71 29 125 31 202 7 61 -18 81 -30 129 -78 59 -59 90 -124
90 -187 0 -38 19 -56 85 -80 75 -27 159 -116 181 -191 45 -157 -25 -311 -174
-382 l-57 -27 -6 -65 c-8 -98 -44 -152 -121 -185 -114 -47 -241 24 -269 152
-15 71 -24 83 -58 83 -40 0 -51 -18 -51 -80 0 -100 66 -196 172 -252 34 -17
60 -22 123 -23 44 0 89 2 100 5 29 8 46 -37 56 -152 6 -69 15 -113 29 -141 17
-32 19 -42 8 -48 -22 -14 -97 -22 -153 -16 -51 5 -155 49 -155 66 0 4 9 16 20
26 11 10 20 30 20 45 0 57 -51 66 -111 19 -43 -34 -113 -59 -164 -59 -17 0
-56 7 -86 16 -43 13 -66 29 -115 80 -36 37 -71 64 -82 64 -14 0 -37 -21 -66
-59 -55 -71 -121 -115 -206 -137 -196 -50 -399 83 -417 275 -7 72 -25 101 -62
101 -45 0 -55 -20 -47 -103 3 -39 9 -84 12 -99 l6 -28 -43 15 c-100 35 -201
131 -215 204 -6 26 -2 31 32 49 44 23 111 90 142 143 52 87 63 216 28 316
l-15 41 51 12 c67 17 164 -2 152 -28 -79 -186 2 -405 185 -495 60 -29 74 -32
161 -32 86 0 101 3 162 32 81 38 142 98 183 179 27 54 30 67 30 164 0 98 -2
109 -32 165 -112 214 -382 278 -570 136 l-51 -39 -44 15 c-57 21 -190 20 -246
0 l-43 -16 -52 39 c-54 41 -111 65 -186 76 l-44 7 7 60 c17 165 126 277 285
294 61 6 61 6 90 58 16 28 44 65 63 80 81 69 207 99 318 76 80 -17 81 -18 62
-77 l-17 -52 -67 -6 c-120 -11 -231 -71 -299 -161 -66 -87 -72 -143 -19 -160
29 -9 49 6 89 66 72 106 177 157 299 145 74 -8 102 7 102 55 0 45 37 132 76
178 34 40 90 75 144 92 44 13 145 10 193 -7z"/>
<path d="M4155 5726 c-14 -20 -15 -34 -6 -80 18 -98 63 -158 153 -206 55 -30
72 -34 139 -35 65 0 84 4 134 30 32 17 67 43 79 58 19 26 19 30 5 55 -20 37
-61 41 -99 9 -66 -56 -157 -59 -229 -7 -47 34 -68 70 -77 131 -8 55 -19 69
-55 69 -19 0 -34 -8 -44 -24z"/>
<path d="M4800 5251 c-35 -11 -108 -49 -115 -60 -3 -6 -23 -2 -48 9 -55 26
-148 26 -204 1 -49 -23 -62 -51 -38 -87 14 -22 22 -25 48 -20 97 19 120 19
153 1 38 -20 74 -85 74 -131 0 -37 16 -54 52 -54 45 0 64 39 51 103 -6 29 -14
61 -18 73 -6 18 1 24 45 43 40 17 67 21 126 19 84 -2 96 5 92 57 -2 20 -11 34
-28 42 -27 14 -149 16 -190 4z"/>
<path d="M5569 3327 l-34 -23 -3 -666 -2 -666 30 -25 c61 -52 182 -47 237 8
l33 33 0 644 c0 567 -2 646 -16 666 -25 37 -67 52 -142 52 -55 0 -76 -5 -103
-23z"/>
<path d="M6005 3315 c-53 -53 -18 -135 58 -135 48 0 77 31 77 81 0 71 -85 105
-135 54z"/>
<path d="M6260 3310 c-25 -25 -26 -71 -1 -101 l19 -24 262 0 262 0 19 24 c25
30 24 76 -1 101 -19 19 -33 20 -280 20 -247 0 -261 -1 -280 -20z"/>
<path d="M1123 3305 c-17 -7 -36 -22 -42 -34 -8 -13 -11 -221 -11 -659 l0
-640 30 -26 c17 -14 49 -28 75 -32 65 -9 130 3 165 32 l30 26 0 189 0 189 38
50 c20 27 39 49 42 49 3 1 79 -112 170 -250 91 -138 178 -262 193 -275 84 -71
274 32 253 137 -3 16 -93 163 -200 327 -107 164 -198 305 -201 314 -5 11 43
78 154 217 88 111 163 212 167 226 24 95 -122 207 -220 169 -9 -3 -101 -126
-204 -272 l-187 -265 -5 244 c-3 134 -9 250 -14 258 -25 38 -167 55 -233 26z"/>
<path d="M2590 2831 c-46 -14 -85 -39 -125 -81 l-40 -41 -5 37 c-7 50 -43 76
-113 82 -67 5 -120 -11 -147 -45 -19 -25 -20 -40 -20 -404 0 -264 3 -386 12
-403 15 -34 83 -66 139 -66 46 0 115 26 136 51 8 10 13 92 15 270 3 282 5 289
71 329 42 26 86 25 128 -3 65 -43 69 -64 69 -330 0 -152 4 -246 11 -259 6 -11
29 -28 52 -39 71 -32 167 -22 214 23 l23 21 0 266 c0 281 -5 324 -49 410 -33
64 -109 141 -166 167 -52 25 -150 31 -205 15z"/>
<path d="M3438 2821 c-117 -38 -212 -121 -265 -230 -27 -54 -28 -61 -28 -221
l0 -165 33 -67 c38 -79 124 -163 206 -203 216 -106 489 -9 597 211 l34 69 0
155 0 155 -33 68 c-44 89 -113 157 -207 203 -70 34 -83 38 -178 41 -80 2 -114
-1 -159 -16z m228 -282 c46 -45 57 -84 52 -195 -4 -101 -15 -126 -72 -168 -59
-45 -155 -15 -190 58 -23 49 -22 218 2 266 42 85 141 104 208 39z"/>
<path d="M4172 2823 c-51 -18 -102 -66 -102 -96 1 -12 72 -199 159 -416 126
-314 163 -396 182 -407 30 -16 139 -18 173 -2 26 11 26 10 122 261 20 54 40
94 44 90 3 -4 33 -78 65 -163 31 -85 66 -164 76 -175 26 -27 157 -35 193 -12
18 12 61 109 180 406 86 215 156 399 156 410 0 78 -195 157 -259 104 -13 -12
-49 -100 -102 -253 -44 -129 -84 -238 -88 -242 -4 -4 -35 89 -70 207 -35 118
-69 219 -75 224 -21 17 -92 24 -129 12 -42 -14 -39 -8 -113 -259 -36 -123 -60
-188 -65 -179 -5 7 -44 116 -88 241 -43 125 -87 236 -97 247 -21 24 -98 25
-162 2z"/>
<path d="M6307 2830 c-98 -25 -208 -102 -262 -184 -52 -78 -68 -156 -63 -311
3 -114 7 -137 30 -187 37 -79 73 -122 142 -168 187 -127 523 -114 644 24 44
50 40 109 -10 163 -37 39 -77 39 -166 -1 -65 -29 -91 -36 -144 -36 -107 0
-188 55 -191 131 l-2 34 242 5 c238 5 242 5 267 29 37 35 49 82 44 170 -8 134
-80 234 -217 299 -67 32 -83 36 -175 38 -55 2 -118 -1 -139 -6z m194 -226 c37
-18 50 -38 56 -83 8 -56 -10 -62 -154 -59 l-118 3 -3 32 c-10 100 113 160 219
107z"/>
<path d="M2403 1626 c-85 -38 -61 -136 38 -152 53 -9 84 -37 69 -63 -14 -28
-63 -36 -101 -17 -42 21 -59 20 -59 -2 0 -40 104 -66 158 -38 83 43 60 137
-38 152 -23 4 -51 14 -62 24 -18 14 -19 19 -8 39 11 21 17 23 58 18 26 -3 57
-9 70 -12 16 -6 22 -3 22 9 0 38 -94 65 -147 42z"/>
<path d="M4147 1624 c-13 -13 -8 -259 5 -272 17 -17 152 -16 167 1 18 23 -9
37 -71 37 l-57 0 -3 117 c-2 97 -6 118 -18 121 -9 1 -19 0 -23 -4z"/>
<path d="M3870 1586 c0 -18 -6 -25 -22 -28 -13 -2 -23 -10 -23 -18 0 -8 10
-16 23 -18 21 -3 22 -8 22 -83 0 -77 1 -80 26 -90 31 -11 64 -3 64 16 0 7 -10
15 -22 17 -21 3 -23 9 -26 71 -3 66 -3 67 23 67 18 0 25 5 25 20 0 15 -7 20
-25 20 -20 0 -25 5 -25 25 0 18 -5 25 -20 25 -15 0 -20 -7 -20 -24z"/>
<path d="M2621 1561 c-10 -6 -12 -30 -9 -91 3 -75 6 -84 31 -106 40 -34 90
-32 128 5 27 28 29 34 29 109 0 59 -4 81 -14 85 -22 9 -26 -2 -26 -72 0 -75
-18 -111 -54 -111 -37 0 -46 19 -46 96 0 73 -13 101 -39 85z"/>
<path d="M2938 1556 c-18 -9 -29 -11 -36 -4 -6 6 -18 8 -27 5 -13 -6 -15 -26
-13 -149 3 -135 4 -143 23 -143 17 0 20 8 23 52 l3 51 27 -14 c41 -21 68 -17
104 15 30 27 33 35 33 86 0 51 -3 59 -33 86 -36 32 -63 36 -104 15z m81 -52
c12 -15 21 -37 21 -49 0 -33 -37 -75 -66 -75 -35 0 -64 34 -64 75 0 69 69 100
109 49z"/>
<path d="M3200 1553 c-17 -12 -25 -13 -28 -5 -2 7 -12 12 -23 12 -18 0 -19 -9
-19 -150 0 -143 1 -150 20 -150 18 0 20 7 20 55 l0 55 34 -17 c59 -28 121 4
136 70 12 55 -4 104 -43 127 -39 24 -65 25 -97 3z m80 -43 c43 -43 13 -130
-44 -130 -29 0 -66 42 -66 75 0 33 37 75 66 75 13 0 33 -9 44 -20z"/>
<path d="M3433 1550 c-57 -34 -65 -125 -16 -175 51 -50 137 -41 174 19 64 105
-53 221 -158 156z m111 -39 c26 -29 24 -91 -4 -113 -49 -39 -110 -7 -110 57 0
65 74 101 114 56z"/>
<path d="M3731 1553 c-18 -12 -26 -13 -29 -5 -2 7 -12 12 -23 12 -18 0 -20 -7
-17 -107 2 -88 6 -108 18 -108 12 0 16 17 20 76 6 88 19 109 67 109 27 0 34 4
31 18 -4 23 -38 26 -67 5z"/>
<path d="M4421 1556 c-47 -26 -66 -103 -40 -160 23 -50 122 -71 165 -35 23 19
18 43 -8 34 -56 -18 -83 -16 -105 5 -13 11 -23 25 -23 30 0 6 35 10 79 10 44
0 83 5 86 10 13 20 -17 81 -49 101 -36 22 -71 24 -105 5z m91 -43 c29 -26 21
-33 -42 -33 -33 0 -60 3 -60 7 0 3 7 15 17 25 20 22 61 23 85 1z"/>
<path d="M4646 1549 c-48 -38 -29 -84 46 -108 40 -13 63 -35 53 -51 -10 -16
-68 -12 -94 6 -32 23 -52 3 -26 -26 26 -29 80 -36 122 -16 31 15 34 20 31 53
-3 38 -8 43 -83 75 -33 15 -39 35 -14 51 11 7 25 5 49 -7 44 -22 67 -4 31 25
-30 25 -82 24 -115 -2z"/>
<path d="M4852 1554 c-15 -11 -22 -25 -22 -50 0 -36 0 -36 93 -73 19 -7 27
-17 25 -29 -4 -23 -70 -29 -88 -8 -18 22 -40 20 -40 -5 0 -22 51 -49 93 -49
33 0 77 37 77 63 0 35 -16 51 -67 68 -34 11 -49 22 -51 36 -4 29 32 40 63 19
32 -21 45 -20 45 2 0 38 -87 55 -128 26z"/>
<path d="M5094 1560 c-79 -32 -86 -154 -12 -201 97 -60 206 46 157 154 -21 47
-91 69 -145 47z m96 -52 c26 -28 26 -68 -1 -102 -26 -33 -62 -34 -94 -1 -30
30 -32 64 -4 99 26 33 70 35 99 4z"/>
<path d="M5382 1554 c-18 -12 -26 -13 -37 -4 -8 7 -22 10 -30 6 -12 -4 -15
-25 -15 -99 0 -93 9 -121 36 -110 10 4 14 25 14 78 0 80 13 105 54 105 37 0
46 -19 46 -101 0 -57 4 -78 14 -82 29 -11 39 20 34 105 -4 69 -8 84 -28 100
-27 22 -58 23 -88 2z"/>
<path d="M1800 1512 c-32 -32 -37 -56 -19 -95 22 -49 83 -60 125 -23 54 46 30
127 -43 142 -27 5 -37 1 -63 -24z"/>
<path d="M1099 1511 c-17 -13 -23 -29 -23 -56 0 -27 6 -43 23 -56 21 -17 44
-19 275 -19 273 0 287 3 300 55 7 29 -15 79 -39 89 -9 3 -128 6 -265 6 -227 0
-250 -2 -271 -19z"/>
</g>
</svg>
